<svg xmlns="http://www.w3.org/2000/svg" viewBox="0 0 490.87 94.75"><defs><style>.cls-1,.cls-2{fill:#fff;}.cls-1{fill-rule:evenodd;}</style></defs><title>eyantra</title><g id="Layer_2" data-name="Layer 2"><g id="Layer_1-2" data-name="Layer 1"><g id="Layer_1-3" data-name="Layer_1"><g id="_2745005801248" data-name=" 2745005801248"><path class="cls-1" d="M59.37,32.89V34h.1l-33,13.5V34a8.05,8.05,0,0,1,1.5-5.2,7,7,0,0,1,3.8-2.7,18,18,0,0,1,5.4-.8h13a11.91,11.91,0,0,1,4.7.7,6.78,6.78,0,0,1,3.3,2.4A7.51,7.51,0,0,1,59.37,32.89Z"/><path class="cls-1" d="M86.57,63v7.2H34.07a9.48,9.48,0,0,1-2.3-.5,6.91,6.91,0,0,1-2.2-1.2,10,10,0,0,1-2-2.2,7.32,7.32,0,0,1-.8-2.5,26.89,26.89,0,0,1-.2-3.1v-2l44.8-18.2v-8.6a25,25,0,0,0-1.8-10.1,12.52,12.52,0,0,0-5.7-6.1,20.9,20.9,0,0,0-10-2.1H33.37a25.68,25.68,0,0,0-10.1,1.8,14.23,14.23,0,0,0-6.4,5.7c-1.5,2.6-2.2,5.9-2.2,10v32.3a32.79,32.79,0,0,0,.4,5.6,13.79,13.79,0,0,0,1.7,4.8,18.07,18.07,0,0,0,3.7,4.3,15,15,0,0,0,4.3,2.6,18.16,18.16,0,0,0,4.6,1.1,41.82,41.82,0,0,0,5.1.2H86.53a14,14,0,0,1-1,4c-3.4,11.4-20.2,8.4-30.4,8.4-57.7,0-54.8,5.8-54.8-31.7C.37.39-5,.39,25.67.29c43.1,0,55.7-2.5,59.3,7.2a13.3,13.3,0,0,1,1.6,6.2v26.8C86.67,48,86.77,55.59,86.57,63Z"/><path class="cls-2" d="M129.67,72.59c-16.5,0-22.2-11.1-22.2-21.8v-48h13v47.5c0,8.8,8.1,11.6,12.5,11.6h22.2v-59h13.2v72.4c0,7.5-1.9,18.8-18.4,18.8h-40.5V83.29h36.4c5.5,0,9.4-1.9,9.4-6.9v-3.7l-25.6-.1Z"/><path class="cls-2" d="M225.17,2.89h-44.6v10.7h39.7c7.5,0,11.1,4.8,11.1,14.6v2.1h-30.3c-14.4,0-23.2,7.4-23.2,21.3s8.8,21,23.2,21h43.5V23.49C244.57,6.59,232,2.89,225.17,2.89Zm6.2,59h-26.2c-9.1,0-12.8-3.3-12.8-10.3,0-7.3,3.8-10.6,12.4-10.6h26.6Z"/><path class="cls-2" d="M317.17,26.19v46.4H304V29.19c0-7.2-2.5-15.5-14.7-15.5h-20.2v58.9h-13V2.89h36.5C308.27,2.89,317.17,10.49,317.17,26.19Z"/><path class="cls-2" d="M367.67,2.89v10.8H347v41.4a6.43,6.43,0,0,0,6.7,6.8H365v10.7h-18.3c-6,0-12.9-5.4-12.9-14.6V13.69h-13.7V2.89Z"/><path class="cls-2" d="M399.67,2.89c7.9,0,20.6,4,20.6,20.1v10.3h-13.1v-8.1c0-6.7-2.2-11.5-11.5-11.5h-9.5v58.9h-13V2.89Z"/><path class="cls-2" d="M471.57,2.89H427v10.8h39.6c7.5,0,11.1,4.8,11.1,14.6v2.1h-30.3c-14.4,0-23.2,7.4-23.2,21.3s8.7,21,23.2,21h43.5V23.39C490.87,6.59,478.37,2.89,471.57,2.89Zm6.2,59h-26.2c-9,0-12.8-3.3-12.8-10.3,0-7.3,3.8-10.6,12.4-10.6h26.6Z"/></g></g></g></g></svg>