<?xml version="1.0" encoding="utf-8"?>
<!-- Generator: Adobe Illustrator 23.0.0, SVG Export Plug-In . SVG Version: 6.00 Build 0)  -->
<svg version="1.1" id="Layer_1" xmlns="http://www.w3.org/2000/svg" xmlns:xlink="http://www.w3.org/1999/xlink" x="0px" y="0px"
	 viewBox="0 0 492 94" style="enable-background:new 0 0 492 94;" xml:space="preserve">
<style type="text/css">
	.st0{fill-rule:evenodd;clip-rule:evenodd;fill:#FFFFFF;}
	.st1{fill:#FFFFFF;}
</style>
<g id="Layer_x0020_1">
	<g id="_2745005801248">
		<path class="st0" d="M59.4,32.8v1.1h0.1l-33,13.5V33.9c0-2.2,0.5-4,1.5-5.2c0.9-1.3,2.2-2.2,3.8-2.7c1.6-0.5,3.4-0.8,5.4-0.8h13
			c1.7-0.1,3.3,0.2,4.7,0.7c1.4,0.5,2.5,1.3,3.3,2.4C59,29.4,59.4,30.9,59.4,32.8z"/>
		<path class="st0" d="M86.6,62.9v7.2H34.1c-0.8-0.1-1.5-0.2-2.3-0.5c-0.7-0.2-1.4-0.6-2.2-1.2c-0.9-0.7-1.5-1.5-2-2.2
			c-0.4-0.8-0.7-1.6-0.8-2.5c-0.1-0.9-0.2-1.9-0.2-3.1v-2l44.8-18.2v-8.6c0-4-0.6-7.4-1.8-10.1c-1.2-2.7-3.1-4.7-5.7-6.1
			c-2.6-1.4-5.9-2.1-10-2.1H33.4c-3.9,0-7.3,0.6-10.1,1.8c-2.8,1.3-4.9,3.2-6.4,5.7c-1.5,2.6-2.2,5.9-2.2,10v32.3
			c0,2,0.1,3.9,0.4,5.6c0.3,1.7,0.8,3.3,1.7,4.8c0.9,1.5,2.1,2.9,3.7,4.3c1.4,1.2,2.8,2,4.3,2.6c1.5,0.6,3,0.9,4.6,1.1
			c1.6,0.2,3.3,0.2,5.1,0.2h52.1c-0.1,1.4-0.5,2.8-1,4c-3.4,11.4-20.2,8.4-30.4,8.4c-57.7,0-54.8,5.8-54.8-31.7
			C0.4,0.3-5,0.3,25.7,0.2c43.1,0,55.7-2.5,59.3,7.2c1,1.9,1.6,4,1.6,6.2v26.8C86.7,47.9,86.8,55.5,86.6,62.9z"/>
		<path class="st1" d="M129.7,72.5c-16.5,0-22.2-11.1-22.2-21.8v-48h13v47.5c0,8.8,8.1,11.6,12.5,11.6h22.2v-59h13.2v72.4
			c0,7.5-1.9,18.8-18.4,18.8h-40.5V83.2h36.4c5.5,0,9.4-1.9,9.4-6.9v-3.7L129.7,72.5L129.7,72.5z"/>
		<path class="st1" d="M225.2,2.8h-44.6v10.7h39.7c7.5,0,11.1,4.8,11.1,14.6v2.1h-30.3c-14.4,0-23.2,7.4-23.2,21.3
			c0,13.8,8.8,21,23.2,21h43.5V23.4C244.6,6.5,232,2.8,225.2,2.8z M231.4,61.8h-26.2c-9.1,0-12.8-3.3-12.8-10.3
			c0-7.3,3.8-10.6,12.4-10.6h26.6V61.8z"/>
		<path class="st1" d="M317.2,26.1v46.4H304V29.1c0-7.2-2.5-15.5-14.7-15.5h-20.2v58.9h-13V2.8h36.5
			C308.3,2.8,317.2,10.4,317.2,26.1z"/>
		<path class="st1" d="M367.7,2.8v10.8H347V55c0,4,2.7,6.8,6.7,6.8H365v10.7h-18.3c-6,0-12.9-5.4-12.9-14.6V13.6h-13.7V2.8H367.7z"
			/>
		<path class="st1" d="M399.7,2.8c7.9,0,20.6,4,20.6,20.1v10.3h-13.1v-8.1c0-6.7-2.2-11.5-11.5-11.5h-9.5v58.9h-13V2.8H399.7
			L399.7,2.8z"/>
		<path class="st1" d="M471.6,2.8H427v10.8h39.6c7.5,0,11.1,4.8,11.1,14.6v2.1h-30.3c-14.4,0-23.2,7.4-23.2,21.3
			c0,13.8,8.7,21,23.2,21h43.5V23.3C490.9,6.5,478.4,2.8,471.6,2.8z M477.8,61.8h-26.2c-9,0-12.8-3.3-12.8-10.3
			c0-7.3,3.8-10.6,12.4-10.6h26.6V61.8z"/>
	</g>
</g>
</svg>
