<?xml version="1.0" encoding="utf-8"?>
<!-- Generator: Adobe Illustrator 23.0.0, SVG Export Plug-In . SVG Version: 6.00 Build 0)  -->
<svg version="1.1" id="Layer_1" xmlns="http://www.w3.org/2000/svg" xmlns:xlink="http://www.w3.org/1999/xlink" x="0px" y="0px"
	 viewBox="0 0 685.4 231.9" style="enable-background:new 0 0 685.4 231.9;" xml:space="preserve">
<style type="text/css">
	.st0{fill-rule:evenodd;clip-rule:evenodd;fill:#FFFFFF;}
	.st1{fill:#FFFFFF;}
</style>
<g id="XMLID_23_">
	<path id="XMLID_43_" class="st0" d="M511.9,152c0-12.8-10.3-23.1-23-23.1s-23,10.3-23,23.1c0,12.4,8.4,21.9,20.9,22.3l0,0
		c6.4,0.1,12.7-3.4,14.9-7.9l0,0v0.3v6.8H512L511.9,152L511.9,152L511.9,152z M488.8,164.3c-7,0-12.7-5.7-12.7-12.7
		s5.7-12.7,12.7-12.7c7,0,12.7,5.7,12.7,12.7S495.8,164.3,488.8,164.3"/>
	<path id="XMLID_40_" class="st0" d="M342.5,152c0-12.8-10.3-23.1-23-23.1s-23,10.3-23.1,23.1c0,12.4,8.4,21.9,20.9,22.3l0,0
		c6.4,0.1,12.7-3.4,14.9-7.9l0,0v0.3v6.8h10.3L342.5,152L342.5,152L342.5,152z M319.5,164.3c-7,0-12.7-5.7-12.7-12.7
		s5.7-12.7,12.7-12.7s12.7,5.7,12.7,12.7C332.2,158.6,326.5,164.3,319.5,164.3"/>
	<path id="XMLID_37_" class="st0" d="M272.8,128.9c-5.5,0-10.4,2.3-13.8,6c-3.5-3.7-8.4-6-13.9-6c-10.5,0-19,8.6-19,19.1v25.6h10.3
		V148c0-4.8,3.9-8.7,8.7-8.7c4.8,0,8.6,3.9,8.7,8.6v0.1v25.6h10.3l0,0V148v-0.1c0.1-4.8,3.9-8.7,8.7-8.7c4.8,0,8.7,3.9,8.7,8.7v25.6
		h10.3v-25.6C291.8,137.5,283.3,128.9,272.8,128.9"/>
	<path id="XMLID_36_" class="st0" d="M666.4,128.9c-5.5,0-10.4,2.3-13.9,6c-3.5-3.7-8.4-6-13.8-6c-10.5,0-19,8.6-19,19.1v25.6h10.4
		V148l0,0c0-4.8,3.9-8.7,8.7-8.7s8.6,3.9,8.7,8.6v0.1v25.6h10.3l0,0V148v-0.1c0-4.8,3.9-8.7,8.7-8.7s8.7,3.9,8.7,8.7l0,0v25.6h10.2
		v-25.6C685.4,137.5,676.9,128.9,666.4,128.9"/>
	<rect id="XMLID_35_" x="208.1" y="130.5" class="st0" width="10.3" height="43.1"/>
	<path id="XMLID_34_" class="st0" d="M220,118.6c0,3.8-3,6.8-6.8,6.8s-6.8-3.1-6.8-6.8c0-3.8,3.1-6.8,6.8-6.8
		C217,111.8,220,114.8,220,118.6"/>
	<rect id="XMLID_33_" x="400.9" y="130.5" class="st0" width="10.3" height="43.1"/>
	<path id="XMLID_32_" class="st0" d="M412.9,118.6c0,3.8-3.1,6.8-6.8,6.8c-3.7,0-6.8-3.1-6.8-6.8c0-3.8,3.1-6.8,6.8-6.8
		S412.9,114.8,412.9,118.6"/>
	<path id="XMLID_29_" class="st1" d="M393.2,152c0-12.8-10.3-23.1-23-23.1s-23,10.3-23,23.1c0,13.1,8.8,23.1,22.8,22.9l0,0
		c7-0.4,11.4-4.7,13-7.7l0,0l0,0l0,0v2.5v3.9v0.3c0,7-5.7,12.7-12.7,12.7c-5.6,0-10.3-3.6-12-8.6h-10.7c1.9,10.8,11.3,19,22.7,19
		c12.7,0,23-10.3,23-23.1v-0.3L393.2,152L393.2,152L393.2,152z M370.2,164.7c-7,0-12.7-5.7-12.7-12.7s5.7-12.7,12.7-12.7
		s12.7,5.7,12.7,12.7S377.2,164.7,370.2,164.7"/>
	<rect id="XMLID_28_" x="553" y="130.5" class="st0" width="10.4" height="43.1"/>
	<path id="XMLID_27_" class="st0" d="M565,118.6c0,3.8-3,6.8-6.8,6.8s-6.8-3.1-6.8-6.8c0-3.8,3.1-6.8,6.8-6.8S565,114.8,565,118.6"
		/>
	<path id="XMLID_26_" class="st0" d="M613.3,153.9c0,11.7-9.5,21.2-21.2,21.2s-21.1-9.5-21.1-21.2v-1.3v-22.1h10.3v22.1v1.3
		c0,6,4.8,11.3,10.8,11.3s10.8-5.3,10.8-11.3v-1.3v-22.1h10.3v22.1L613.3,153.9z"/>
	<path id="XMLID_25_" class="st0" d="M418.8,150.1c0-11.7,9.5-21.2,21.2-21.2s21.2,9.5,21.2,21.2v1.4v22.1h-10.3v-22.1v-1.4
		c0-6-4.9-10.8-10.8-10.8c-6,0-10.8,4.9-10.8,10.8v1.4v22.1h-10.4v-22.1L418.8,150.1z"/>
	<path id="XMLID_24_" class="st0" d="M546.4,140.6v-10.1h-8.5c-10.5,0-18.4,8.6-18.4,19.1v24h10.3v-24.3v0.3c0-4.8,3.2-9,8-9H546.4z
		"/>
</g>
<g id="XMLID_16_">
	<path class="st1" d="M61,231.9c-1.7,0-3.1-0.7-4.2-1.5c-6.6-5.2-8.8-22.7-5.6-32.6c4.1-12.7,11.8-26.9,19.1-36.6
		c-25.7-6-56.9-24.3-65-38.6c-5.7-10.2-6.9-17.8-3.2-22.1c2.8-3.2,8-4.1,15.5-2.5c0.2-0.3,0.4-0.6,0.7-0.9c2.6-2.9,7.1-3.7,14.4-2.5
		c15.2,2.6,32.8,19.6,42.1,34.3c4.4,4,8.4,8.5,11.7,13.4c-1.6-4.3-4.3-10.1-8.2-17.4c-6.2-11.8-11.2-22.1-15.6-31.3
		c-8.7-18-14.4-29.9-21.3-35.9l1.6-1.9c7.2,6.4,13.1,18.4,21.9,36.7c4.4,9.1,9.4,19.4,15.6,31.2c7,13,10.2,21,10.2,25.9
		c1.5,3.2,2.7,6.5,3.6,10c2.1-0.5,4.3-1.1,6.6-1.9c-3.9-6.9-6.1-11.8-6.3-12.5c-6.4-15-4.6-62.2-3.5-81.8
		c1.3-21.6,7.2-43.6,7.2-43.9l2.4,0.7c-0.1,0.2-5.9,22-7.2,43.3c-0.8,15.1-3.1,65.7,3.3,80.6c0.1,0.2,2.3,5.3,6.5,12.6
		c3-1.1,6.1-2.5,9.4-4.1c-1.2-1.3-2.3-2.9-3-5c-8-20.8,10.3-80.6,23-102.2C144.3,25.5,166.4-1.3,177.6,0c1.9,0.2,4.4,1.3,5.7,5.5
		c0.9,2.9,1.9,8.6,2.7,16.2c2.7-2.3,5-3.7,6.5-3.8c1.3-0.1,2.2,0.6,2.7,1.8c3.5,9.3,3.1,34.8-11.4,66.1
		c-4.1,22.9-13.2,47.5-33.1,56.5c-16.8,7.6-26.3,10.7-31.5,10c-0.4,0.2-0.8,0.4-1.2,0.7c2.6,0.9,6.2,2.9,10.4,5.6
		c12.5,3.5,26.9,12.6,33,23.9c0.9,1.7,1.9,3.4,2.9,5c13.3,12.8,23.6,25.6,21.7,31.9c-1.5,4.8-8.6,5.3-21.9,1.4
		c-38.5-11.2-52.2-26.1-56.9-36.6c-2.8-6.1-3.3-12.7-1.5-18.5c-1.3-2-2.4-3.8-3.4-5.6c-2.5,0.9-5,1.6-7.4,2.2
		c0.5,2.7,0.7,5.4,0.7,8.2c0,11.9-2,21.7-5.1,29.8c-1,11-3,20.5-6.4,23.5c-2.4,2.1-5.2,2.3-8.1,0.7c-0.4-0.3-0.9-0.5-1.3-0.9
		c-3.1,2.8-6.2,5.1-9.2,7C63.7,231.5,62.3,231.9,61,231.9z M66.2,171.7c-4.9,8-9.6,17.6-12.6,26.9c-3.1,9.6-0.5,25.7,4.8,29.8
		c1.7,1.3,3.5,1.3,5.6,0c2.8-1.8,5.8-3.9,8.7-6.6c-6.7-7.1-11.8-23.6-9.3-38.6C64.1,178.8,65.1,175,66.2,171.7z M76.3,221.8
		c0.2,0.2,0.5,0.3,0.7,0.5c1.9,1.1,3.7,0.9,5.2-0.4c2.1-1.9,3.7-7.3,4.7-14.4C83.9,213.2,80.2,218,76.3,221.8z M107.4,168.5
		c-0.9,4.7-0.3,9.8,1.9,14.7c4.5,10,17.8,24.3,55.4,35.2c15.1,4.4,18.2,2,18.8,0.3c1-3.4-3.6-10.9-12.3-20.4
		c3.1,4.8,4.7,8.1,3.1,10.2c-1.7,2.3-6,2.7-22.2-2.2C132.5,200.5,117.2,183.2,107.4,168.5z M73.4,161.9c-2.8,4.7-5.8,11.2-7.6,21.8
		c-2.5,14.9,2.9,30.3,8.6,36.5c5.2-5.1,10-11.8,13.5-20.6c1-11.9,0.9-26-0.3-36.1c0-0.1,0-0.2,0-0.3
		C83.3,163.4,78.5,162.9,73.4,161.9z M108.3,165.2c9.7,14.8,25,32.9,44.4,38.7c15.5,4.6,18.8,3.9,19.4,3.1c1-1.3-2.6-6.6-5.7-11.2
		c-1.4-2.1-2.9-4.3-4.4-6.7c-1.5-1.5-3.2-3-4.8-4.5c-10.3-9.4-21.3-18-29.8-23.5c-3.6-1-7-1.5-9.9-1.4c-3.1,0.1-7,0.9-8.6,4.2
		C108.7,164.2,108.5,164.7,108.3,165.2z M90.1,163c0,0.1,0,0.1,0,0.2c0.8,6.9,1.2,16.7,0.9,26.4c1.3-5.7,2-12,2-19.2
		c0-2.7-0.2-5.2-0.7-7.7C91.5,162.8,90.8,162.9,90.1,163z M136.8,164.6c6.7,4.9,14,10.8,20.9,17.1
		C153.2,174.6,145.2,168.6,136.8,164.6z M104.5,159.1c0.7,1.1,1.4,2.3,2.1,3.5c1.7-3.5,5.4-5.4,10.8-5.5c1.2,0,2.4,0,3.7,0.1
		c-1.8-0.9-3.3-1.6-4.6-2c-0.6-0.2-1.1-0.4-1.6-0.7C111.4,156.3,107.9,157.8,104.5,159.1z M74.9,159.6c4.4,0.8,8.6,1.2,12.3,1.1
		c-0.3-2-0.6-3.5-0.9-4.6c-2.2,0.7-5.2,0.7-8.7,0.4c-0.7,0.7-1.5,1.6-2.3,2.5C75.2,159.1,75,159.4,74.9,159.6z M88.6,154.9
		c0.4,1.4,0.8,3.3,1.1,5.7c0.7-0.1,1.4-0.2,2-0.3c-0.5-2.3-1.2-4.4-2.1-6.5l0,0C89.3,154.2,89,154.5,88.6,154.9z M10.9,99.8
		c-3.2,0-5.6,0.8-6.9,2.4c-2.8,3.3-1.5,10.2,3.5,19.2c7.8,13.8,39.4,32,64.5,37.6c0.4-0.5,0.9-1.1,1.3-1.6c0.3-0.4,0.6-0.8,0.9-1.3
		c-0.3,0-0.6-0.1-1-0.1c-1.3-0.1-2.7-0.2-4.1-0.4c-20.3-1.5-45.7-23.4-50.6-39.4c-2.3-7.2-3-12.4-2-15.9
		C14.4,100,12.5,99.8,10.9,99.8z M80.2,154.1c2.2,0.1,4,0,5.4-0.4c-0.5-1.2-0.9-1.5-0.9-1.5c-0.5-0.2-1.2-0.1-1.7,0.2
		C82.2,152.7,81.2,153.3,80.2,154.1z M19,101c-0.9,3-0.2,7.8,1.9,14.6c4.6,14.9,29.4,36.2,48.4,37.6c1.4,0.1,2.8,0.2,4.2,0.4
		c0.8,0.1,1.6,0.1,2.4,0.2c2.5-3.8,3.9-6.7,2.3-12.2c-0.9-3.3-2.8-7.1-5.4-11.2c-16-14.7-37.2-23.6-46.3-27
		C23.7,102.4,21.2,101.6,19,101z M84.2,149.6c0.6,0,1.2,0.1,1.7,0.4c0.4,0.2,1,0.6,1.8,2.1c0.3-0.5,0.4-1.1,0.5-1.8
		c-2.4-4.9-5.5-9.4-9.2-13.5c0.6,1.5,1.1,2.8,1.5,4.2c1.2,4.3,0.9,7.3-0.2,10c0.6-0.4,1.2-0.7,1.7-0.9
		C82.8,149.7,83.5,149.6,84.2,149.6z M176.6,2.6c-9.2,0-29.5,23-41.9,44.2c-12.2,20.8-30.4,80.2-22.8,100.1c0.8,2,1.8,3.6,3.1,4.7
		c0.3-0.2,0.6-0.3,1-0.5l0,0c-3.6-3-1.8-9.9,0.8-19.3c0.5-1.9,1.1-4,1.6-6.1c3.8-14.8,17.2-39.5,36-65.9c9.9-14,21.2-28.2,29.3-35.8
		c-0.7-7.9-1.7-14.1-2.8-17.5c-0.7-2.3-1.9-3.5-3.6-3.7C177,2.6,176.8,2.6,176.6,2.6z M183.8,27c-18.9,18.8-56.5,73-63.1,99.2
		c-0.5,2.2-1.1,4.2-1.6,6.2c-2.2,8.2-3.9,14.7-1.6,16.7c0.3,0.2,0.6,0.4,1,0.6c21.4-11.8,45.8-32.1,59-57.1c1.3-2.5,2.5-5,3.7-7.5
		C184.9,64.7,185,42.9,183.8,27z M179.3,94.8c-12.1,22.2-34.2,42.3-55.5,54.9c6.6-1.2,16.8-5.5,25.8-9.6
		C165.2,133,174.3,115.2,179.3,94.8z M20.2,98.7c2.2,0.6,4.5,1.3,7.1,2.3c7.9,3,24.8,10.1,39.7,21.4c-9.5-11.8-23-23.3-34.8-25.3
		C26,96.1,22.1,96.6,20.2,98.7z M186.1,24.8c1.1,12.8,1.4,30-0.5,47.9c-0.1,1.1-0.2,2.2-0.4,3.3c9.9-25.3,10.8-46.7,7.5-55.3
		c0-0.1-0.1-0.1-0.1-0.1s0,0-0.1,0c-0.2,0-0.5,0-1.3,0.4C189.9,21.6,188.2,22.9,186.1,24.8z"/>
</g>
</svg>
