<?xml version="1.0" encoding="utf-8"?>
<!-- Generator: Adobe Illustrator 24.2.2, SVG Export Plug-In . SVG Version: 6.00 Build 0)  -->
<svg version="1.1" id="Capa_1" xmlns="http://www.w3.org/2000/svg" xmlns:xlink="http://www.w3.org/1999/xlink" x="0px" y="0px"
	 viewBox="0 0 112.2 112.2" style="enable-background:new 0 0 112.2 112.2;" xml:space="preserve">
<style type="text/css">
	.st0{fill:#ED459D;}
	.st1{fill:#FFFFFF;}
</style>
<circle class="st0" cx="56.1" cy="56.1" r="56"/>
<g>
	<path class="st1" d="M72.9,26.9H39.2c-6.8,0-12.3,5.5-12.3,12.3v33.7c0,6.8,5.5,12.3,12.3,12.3h33.7c6.8,0,12.3-5.5,12.3-12.3V39.2
		C85.3,32.5,79.7,26.9,72.9,26.9z M82.3,72.9c0,5.2-4.2,9.4-9.4,9.4H39.2c-5.2,0-9.4-4.2-9.4-9.4V39.2c0-5.2,4.2-9.4,9.4-9.4h33.7
		c5.2,0,9.4,4.2,9.4,9.4L82.3,72.9L82.3,72.9z"/>
	<path class="st1" d="M56.1,40.8c-8.4,0-15.3,6.9-15.3,15.3s6.9,15.3,15.3,15.3s15.3-6.9,15.3-15.3S64.5,40.8,56.1,40.8z M56.1,68.5
		c-6.8,0-12.4-5.5-12.4-12.4s5.5-12.4,12.4-12.4s12.4,5.5,12.4,12.4S62.9,68.5,56.1,68.5z"/>
	<circle class="st1" cx="71.9" cy="38.3" r="4"/>
</g>
</svg>
