<?xml version="1.0" encoding="utf-8"?>
<!-- Generator: Adobe Illustrator 23.0.0, SVG Export Plug-In . SVG Version: 6.00 Build 0)  -->
<svg version="1.1" id="Layer_1" xmlns="http://www.w3.org/2000/svg" xmlns:xlink="http://www.w3.org/1999/xlink" x="0px" y="0px"
	 viewBox="0 0 220.8 131.1" style="enable-background:new 0 0 220.8 131.1;" xml:space="preserve">
<style type="text/css">
	.st0{fill:#FFFFFF;}
</style>
<g>
	<polygon class="st0" points="13,22.7 29.2,55.1 45.2,22.8 45.2,53.1 58.1,53.1 58.1,0.1 43,0 29.1,28.5 15.1,0 0.1,0 0.1,53 13,53 
			"/>
	<rect y="57.9" class="st0" width="13.3" height="54.7"/>
	<path class="st0" d="M118.8,70.2c1.8,0,3.4-0.7,4.6-1.8c2.4,0.5,4.7,0.7,6.7,0.7c1.4,0,2.8-0.1,4.2-0.1l11.6,1.5
		c0.6,0.1,1.2,0.1,1.8,0.1c0.9,0,1.8-0.1,2.6-0.4c0.4,0.1,0.7,0.1,1.1,0.1c0.6,0,1.3-0.1,1.9-0.3c1.1,0.2,2.1,0.3,3.1,0.4
		c1.5,0.2,3,0.3,4.5,0.3s3.1-0.2,4.5-0.6c1.9,1,4,1.5,6.2,1.5c2.1,0,4.1-0.4,6-1.3c0.7,0.2,1.4,0.3,2.1,0.3c0.3,0,0.5,0,0.8,0h0.5
		l2.3-0.2c0,0,0.1,0,0.2,0c0.4,0,0.9,0.1,1.3,0.1c0.7,0.1,1.4,0.2,2.1,0.2c0.6,0,1.2-0.1,1.8-0.2c0.8-0.3,1.6-0.7,2.3-1.3h0.2
		l0.8-1.1c1.2-1.6,1.8-3.7,1.5-5.8c-0.3-2.2-2.1-4.1-4.4-4.9c0.7-1.4,1-2.9,1-4.3h4v-53H182v19.5c-3.5-3.3-6.9-4.8-11.7-4.8
		c-4.6,0-9.2,1.9-12.9,5.2c-4.1,3.7-6,8.7-6,15.1c0,5.9,1.9,10.8,5.3,14.2c-3.6,0.7-6.6,3.2-7.9,6.7c-0.3,0.7-0.5,1.4-0.6,2.2
		c-0.9,0.1-1.8,0.5-2.5,1.1c-0.3,0-0.6,0-0.8,0.1c-0.9-0.4-1.8-0.6-2.8-0.6c-0.3,0-0.7,0-1,0.1c-1.5,0.2-2.7,0.7-3.8,1.2l-0.4,0.2
		c-4.2,1.7-7.1,2.5-10,2.5c-0.5,0-1,0-1.4-0.1c-0.1,0-0.1,0-0.2,0c-0.4-3.4-3-5.8-6.5-5.8c-3.9,0-6.7,2.8-6.7,6.6
		S114.9,70.2,118.8,70.2z M173.3,24.9c5,0,8.7,4.4,8.7,10.3c0,2.8-1,5.3-2.6,7c-1.2-0.5-2.4-0.8-3.7-0.8c-0.3,0-0.5,0-0.8,0
		c-2.1,0.2-4.1,1.1-5.7,2.6c-3-1.6-4.9-4.9-4.9-8.8C164.3,29.3,168.1,24.9,173.3,24.9z M127,65.5c3.5,0,6.9-1,11-2.7
		c1.1-0.5,2.3-1,3.5-1.2c0.2,0,0.4,0,0.6,0c1,0,2.1,0.3,2.7,1.1c0.2-0.4,0.6-0.6,1-0.6c0.3,0,0.6,0.1,0.9,0.3
		c0.4-0.8,1.2-1.4,2.1-1.4h0.1c0.9,0,1.7,0.5,2.1,1.2c-1-3.3,0.5-7.3,3.5-9.1c1.2-0.8,2.7-1.2,4.2-1.1c2,0,4,0.7,5.5,2.1
		c0-0.1,0-0.2,0-0.4c0.1,0,0.1,0.1,0.2,0.1c0-1.1,0.3-2.1,1.2-2.7c0.2-0.1,0.5-0.3,0.8-0.4c0.3-0.1,0.6-0.1,0.9-0.1
		c0.5,0,0.9,0.1,1.3,0.3c0-0.1,0-0.1,0-0.2c0.1,0,0.2,0.1,0.3,0.1c0.1-2.4,1.7-4.6,3.7-5.8c0.7-0.3,1.5-0.6,2.3-0.6
		c0.4-0.2,0.5-0.2,0.8-0.2s0.6,0,0.9,0.1l0,0c2.8,0.4,5.2,2.5,5.9,5.3l0,0l0,0l0,0c0.2-0.1,0.3-0.2,0.5-0.3c0,0,0.1,0,0.1-0.1l0,0
		c0.2-0.1,0.5-0.1,0.7-0.1c1.1,0,2.2,0.7,2.9,1.8c0.9,1.5,0.7,3.5-0.1,5.1s-2.1,2.9-3.3,4.1c1.1-0.2,2.2-0.6,3.3-0.6
		c0.3,0,0.7,0,1,0.1c1.5,0.3,2.9,1.4,3.1,2.9c0.2,1.3-0.2,2.6-1,3.7c-0.4,0.7-1.1,1.1-1.9,1.4c-0.3,0.1-0.7,0.1-1.1,0.1
		c-1.1,0-2.3-0.4-3.4-0.4c-0.2,0-0.3,0-0.5,0l-2.8,0.3c-0.1,0-0.3,0-0.5,0c-0.8,0-1.6-0.2-2.3-0.5c-1.7,1-3.7,1.5-5.7,1.5
		c-2.1,0-4.2-0.6-5.8-1.8c-1.5,0.7-3.2,0.9-4.9,0.9c-1.4,0-2.8-0.1-4.1-0.3c-1.3-0.1-2.6-0.3-3.9-0.6c-0.3,0.4-0.8,0.5-1.4,0.5
		c-0.5,0-1-0.1-1.4-0.4c-0.6,0.6-1.5,0.7-2.3,0.7c-0.5,0-1,0-1.5-0.1L134.3,66c-1.4,0.1-2.9,0.1-4.3,0.1c-3.7,0-7.4-0.4-11-2.4h0.1
		c2.2,0.8,4.2,1.4,6.1,1.6C125.9,65.4,126.4,65.5,127,65.5z"/>
	<rect x="112.5" y="74.6" class="st0" width="12.5" height="37.9"/>
	<path class="st0" d="M160.6,78.4c-3-3.7-6.6-5.3-11.7-5.3c-11.7,0-19.6,8.4-19.6,20.8c0,5.4,1.6,10.3,4.3,13.6
		c3.4,4.1,8.5,6.5,13.9,6.5s9.8-1.9,13.1-5.7v1.9c0,6.6-3.8,10.6-10.2,10.6c-4.4,0-8.3-1.7-11.4-5.2l-7.5,7.7
		c5.7,5.3,12,7.8,19.6,7.8c6.7,0,12.7-2.2,16.5-6.1c3.7-3.7,5.1-8.4,5.1-16.7V74.5l-12.1,0.1L160.6,78.4L160.6,78.4z M158.7,100.1
		c-1.6,1.8-4.3,2.9-7,2.9c-5.4,0-9.2-4-9.2-9.7c0-5.5,3.7-9.3,9-9.3c5.6,0,8.8,3.9,8.8,10.5C160.4,97,159.8,98.9,158.7,100.1z"/>
	<path class="st0" d="M128.1,54.5c11.6,0,20.7-8.5,20.7-19.4c0-11.8-8.7-20.3-20.6-20.3c-12.2,0-20.7,8.2-20.7,19.9
		C107.5,46.2,116.1,54.5,128.1,54.5z M122.4,27.1c1.8-0.4,3.3,0.1,4.6,1.3c0.4,0.4,0.7,0.8,1,1.3c0,0,0,0,0,0.1
		c0.2-0.3,0.4-0.6,0.6-0.8c0.7-0.8,1.6-1.5,2.7-1.8c2.6-0.7,5.5,0.8,6.1,3.7c0.2,0.3,0.2,0.8,0.2,1.3c0,0.7-0.1,1.5-0.3,2.2
		c-0.3,1-0.8,2-1.6,2.8c-0.7,0.7-1.3,1.4-2.1,2.1c-1.2,1.1-2.5,2.2-3.7,3.3c-0.6,0.5-1.2,1.1-1.7,1.6h-0.1c-1.4-1.3-2.9-2.6-4.3-3.9
		c-0.9-0.8-1.8-1.6-2.6-2.4c-0.6-0.6-1.2-1.3-1.6-2.1c-0.4-0.8-0.6-1.6-0.8-2.4c-0.1-0.6-0.1-1.2-0.1-1.7
		C118.7,29.5,120.3,27.6,122.4,27.1z"/>
	<path class="st0" d="M84.1,54.5c11.6,0,20.7-8.5,20.7-19.4c0-11.8-8.6-20.3-20.6-20.3C72,14.8,63.5,23,63.5,34.7
		C63.5,46.2,72.1,54.5,84.1,54.5z M86.3,45.9v-0.8v-0.3v-7.9l5.8,5.8C90.6,44.3,88.6,45.4,86.3,45.9z M86.1,23.4
		c5.5,0.9,8.6,5,8.6,11.6c0,1.3-0.2,2.6-0.5,3.7c-2.6-2.5-5.1-5.1-7.7-7.7c-0.2-0.2-0.3-0.5-0.4-0.8C86.1,27.9,86.1,25.7,86.1,23.4z
		 M82,45.1v0.8c-2.4-0.5-4.4-1.6-5.8-3.3l5.8-5.7V45.1z M82,23.5c0,2.2,0,4.4,0,6.6c0,0.3-0.1,0.7-0.3,0.9c-2.5,2.6-5.1,5.1-7.6,7.7
		c-0.4-1.2-0.6-2.5-0.6-4C73.5,28.7,76.8,24.4,82,23.5z"/>
	<path class="st0" d="M198.9,92.5c-1.3,0-2.4,1.1-2.4,2.4c0,1.3,1.1,2.4,2.4,2.4s2.4-1.1,2.4-2.4C201.3,93.6,200.2,92.5,198.9,92.5z
		"/>
	<path class="st0" d="M199.1,73.2c-12.9,0-21.8,8.6-21.8,20.9c0,12.1,9.1,20.8,21.7,20.8c12.2,0,21.8-8.9,21.8-20.4
		C220.7,82.1,211.6,73.2,199.1,73.2z M207.8,96.5c-0.8,0.2-1.6,0.3-2.3,0.4c0.6,0.5,1.2,1.1,1.7,1.7c2.1,2.9,1.3,5.2-0.6,6.6
		c-1.9,1.4-4.3,1.4-6.4-1.5c-0.4-0.7-0.8-1.4-1.1-2.1c-0.3,0.8-0.7,1.5-1.1,2.1c-2.1,2.9-4.5,2.9-6.4,1.4c-1.9-1.4-2.7-3.7-0.6-6.6
		c0.5-0.6,1.1-1.2,1.7-1.7c-0.8,0-1.6-0.2-2.4-0.4c-3.3-1.1-4.1-3.4-3.4-5.7c0.7-2.3,2.7-3.7,6.1-2.6c0.7,0.3,1.5,0.6,2.1,1.1
		c-0.2-0.8-0.3-1.6-0.4-2.4c0-3.5,2-4.9,4.3-4.9s4.3,1.4,4.3,5c0,0.8-0.2,1.6-0.4,2.3c0.7-0.4,1.4-0.8,2.1-1.1
		c3.4-1.1,5.3,0.3,6.1,2.6C211.9,93.2,211.1,95.4,207.8,96.5z"/>
	<path class="st0" d="M75.3,70.8c0,0-3.2,0.6-4.1,0.1c2.4-3.1,3.3-7.4,3.3-12c-3.4-0.1-11.6,1-13.7,4.6c-1.4-2.8-3.7-5.2-7.1-5.4
		c-4.5-0.3-5.9,4.1-9.3,5.9l0,0l0,0c0.8-1.3,1-2.7-0.1-3.9c0-0.5-0.3-1-0.6-1.4C43,58,42,57.9,42,57.9s0.1,1,0.8,1.7
		c0.4,0.3,0.8,0.6,1.2,0.7c0.4,0.4,0.7,1,0.7,1.6c0,0.7-0.3,1.3-0.6,1.8c-0.6,1-1.6,2-2.6,2.6c-0.2,0.2,0,0.6,0.2,0.4
		c0.9-0.6,1.6-1.3,2.3-2.1c2.9,2.3,2.9,6.4,5.4,9.4c0.2,0.2,0.4,0.4,0.6,0.7c0,0-0.1,0-0.1-0.1c1,1.1,2.1,1.9,3.4,2.5
		c0,0,0,0-0.1-0.1c5,2.4,11.5,1.2,15.4-1C73.5,73.1,75.3,70.8,75.3,70.8z M50.4,63c1.5,0.1,1.5,2.5,0,2.4C48.9,65.4,48.9,63,50.4,63
		z"/>
	<path class="st0" d="M47,76c-0.7-0.8-1.2-1.8-1.7-2.7c-0.7-0.1-1.3-0.1-2-0.1c-4.6,0-7.2,1.6-9.7,5.7v-4.3H21.1v37.9h12.5v-23
		c0-3.7,2.1-6.1,5.3-6.1s5.2,2.2,5.2,5.9v23.2h12.5V89.3c0-3.6-0.3-6.2-0.9-8.2C52.1,80.4,49.1,78.6,47,76z"/>
	<path class="st0" d="M92.8,78.1c-3.6-3.4-7.1-4.9-12-4.9c-1.3,0-2.5,0.1-3.7,0.4c-1,1.1-3.2,3-6.9,5.2c-1.5,0.9-3.1,1.5-4.8,2
		c-2.8,3.5-4.1,8-4.1,13.3c0,12,7.7,20,19.3,20c3,0,5.7-0.6,7.9-1.6c1.7-0.8,2.7-1.7,4.4-4.1v4.3h12.3V58l-12.4-0.1V78.1z
		 M83.8,104.2c-5.2,0-9.3-4.4-9.3-10.2c0-6.1,3.9-10.6,9.3-10.6c5.2,0,9,4.5,9,10.6C92.8,99.8,88.8,104.2,83.8,104.2z"/>
	<path class="st0" d="M45.2,59c-0.4,0.9-0.1,1.9-0.1,1.9s1-0.5,1.3-1.4c0.4-0.9,0.1-1.9,0.1-1.9S45.6,58.1,45.2,59z"/>
	<path class="st0" d="M44.5,61.5c0,0-0.8-0.6-1.8-0.5S41,61.7,41,61.7s0.8,0.5,1.8,0.5S44.5,61.5,44.5,61.5z"/>
</g>
</svg>
